<svg xmlns="http://www.w3.org/2000/svg" xmlns:xlink="http://www.w3.org/1999/xlink" width="1481" height="581.5" viewBox="0 0 1481 581.5">
  <defs>
    <filter id="Rectangle_5" x="0" y="1.5" width="1481" height="580" filterUnits="userSpaceOnUse">
      <feOffset input="SourceAlpha"/>
      <feGaussianBlur stdDeviation="25.5" result="blur"/>
      <feFlood flood-color="#272525" flood-opacity="0.271"/>
      <feComposite operator="in" in2="blur"/>
      <feComposite in="SourceGraphic"/>
    </filter>
  </defs>
  <g id="Group_8" data-name="Group 8" transform="translate(2809.5 -5111)">
    <g id="Group_6" data-name="Group 6" transform="translate(-30 653)">
      <g transform="matrix(1, 0, 0, 1, -2779.5, 4458)" filter="url(#Rectangle_5)">
        <g id="Rectangle_5-2" data-name="Rectangle 5" transform="translate(76.5 78)" fill="#fff" stroke="#dbdbdb" stroke-width="1">
          <rect width="1328" height="427" rx="20" stroke="none"/>
          <rect x="0.5" y="0.5" width="1327" height="426" rx="19.5" fill="none"/>
        </g>
      </g>
      <g id="Rectangle_6" data-name="Rectangle 6" transform="translate(-2139 4458)" fill="#ebf8ff" stroke="#fff" stroke-width="12">
        <rect width="201" height="201" rx="15" stroke="none"/>
        <rect x="6" y="6" width="189" height="189" rx="9" fill="none"/>
      </g>
      <text id="Alias_Editor" data-name="Alias Editor" transform="translate(-2230 4768)" font-size="69" font-family="LucidaGrande, Lucida Grande"><tspan x="0" y="0">Alias</tspan><tspan y="0" font-family="MonotypeGurmukhi, Gurmukhi MT"> </tspan><tspan y="0">Editor</tspan></text>
      <text id="Create_recognizable_aliases_for_interactions" data-name="Create recognizable aliases for interactions" transform="translate(-2567 4888)" fill="#8e8e8e" font-size="50" font-family="LucidaGrande, Lucida Grande"><tspan x="0" y="0">Create</tspan><tspan y="0" font-family="MonotypeGurmukhi, Gurmukhi MT"> </tspan><tspan y="0">recognizable</tspan><tspan y="0" font-family="MonotypeGurmukhi, Gurmukhi MT"> </tspan><tspan y="0">aliases</tspan><tspan y="0" font-family="MonotypeGurmukhi, Gurmukhi MT"> </tspan><tspan y="0">for</tspan><tspan y="0" font-family="MonotypeGurmukhi, Gurmukhi MT"> </tspan><tspan y="0">interactions</tspan></text>
    </g>
    <path id="FontAwsome_assistive-listening-systems_" data-name="FontAwsome (assistive-listening-systems)" d="M42.188,50.781a5.469,5.469,0,0,1-10.937,0,15.625,15.625,0,1,1,31.25,0,5.469,5.469,0,1,1-10.937,0,4.688,4.688,0,0,0-9.375,0Zm4.688-34.375A34.414,34.414,0,0,0,12.5,50.781a5.469,5.469,0,0,0,10.938,0,23.438,23.438,0,0,1,46.875,0c0,14.68-13.869,13.733-14.062,28.051v.074A10.168,10.168,0,0,1,46.094,89.063a5.469,5.469,0,1,0,0,10.937A21.118,21.118,0,0,0,67.188,78.95C67.3,72.226,81.25,69.529,81.25,50.781A34.414,34.414,0,0,0,46.875,16.406ZM31.25,62.5a6.25,6.25,0,1,0,6.25,6.25A6.25,6.25,0,0,0,31.25,62.5Zm-25,25a6.25,6.25,0,1,0,6.25,6.25A6.25,6.25,0,0,0,6.25,87.5ZM100,50.783c0-.3,0-.591-.009-.885A53.394,53.394,0,0,0,64.061.3a5.469,5.469,0,0,0-3.537,10.35A42.429,42.429,0,0,1,89.055,50.089v.037c.005.218.006.437.006.657a5.469,5.469,0,0,0,10.938,0ZM29.877,85.748,14.252,70.123,7.623,76.752,23.248,92.377l6.629-6.629Z" transform="translate(-2119 5157)" fill="#3081ce"/>
  </g>
</svg>
