<svg xmlns="http://www.w3.org/2000/svg" xmlns:xlink="http://www.w3.org/1999/xlink" width="1481" height="581.5" viewBox="0 0 1481 581.5">
  <defs>
    <filter id="Rectangle_5" x="0" y="1.5" width="1481" height="580" filterUnits="userSpaceOnUse">
      <feOffset input="SourceAlpha"/>
      <feGaussianBlur stdDeviation="25.5" result="blur"/>
      <feFlood flood-color="#272525" flood-opacity="0.271"/>
      <feComposite operator="in" in2="blur"/>
      <feComposite in="SourceGraphic"/>
    </filter>
  </defs>
  <g id="Group_5" data-name="Group 5" transform="translate(2779.5 -4458)">
    <g id="Group_9" data-name="Group 9">
      <g transform="matrix(1, 0, 0, 1, -2779.5, 4458)" filter="url(#Rectangle_5)">
        <g id="Rectangle_5-2" data-name="Rectangle 5" transform="translate(76.5 78)" fill="#fff" stroke="#dbdbdb" stroke-width="1">
          <rect width="1328" height="427" rx="20" stroke="none"/>
          <rect x="0.5" y="0.5" width="1327" height="426" rx="19.5" fill="none"/>
        </g>
      </g>
      <g id="Rectangle_6" data-name="Rectangle 6" transform="translate(-2135 4458)" fill="#fffaf0" stroke="#fff" stroke-width="12">
        <rect width="201" height="201" rx="15" stroke="none"/>
        <rect x="6" y="6" width="189" height="189" rx="9" fill="none"/>
      </g>
      <text id="CSR_Dashboard" data-name="CSR Dashboard" transform="translate(-2292 4768)" font-size="69" font-family="LucidaGrande, Lucida Grande"><tspan x="0" y="0">CSR</tspan><tspan y="0" font-family="MonotypeGurmukhi, Gurmukhi MT"> </tspan><tspan y="0">Dashboard</tspan></text>
      <text id="Self-support_monitoring_for_Customer_Support" data-name="Self-support monitoring for Customer Support" transform="translate(-2599 4888)" fill="#8e8e8e" font-size="50" font-family="LucidaGrande, Lucida Grande"><tspan x="0" y="0">Self</tspan><tspan y="0" font-family="MonotypeGurmukhi, Gurmukhi MT">-</tspan><tspan y="0">support</tspan><tspan y="0" font-family="MonotypeGurmukhi, Gurmukhi MT"> </tspan><tspan y="0">monitoring</tspan><tspan y="0" font-family="MonotypeGurmukhi, Gurmukhi MT"> </tspan><tspan y="0">for</tspan><tspan y="0" font-family="MonotypeGurmukhi, Gurmukhi MT"> </tspan><tspan y="0">Customer</tspan><tspan y="0" font-family="MonotypeGurmukhi, Gurmukhi MT"> </tspan><tspan y="0">Support</tspan></text>
      <path id="FontAwsome_arrows-alt_" data-name="FontAwsome (arrows-alt)" d="M68.789,83.158,53.321,98.626a4.687,4.687,0,0,1-6.629,0L31.224,83.158a4.687,4.687,0,0,1,3.315-8h9.993V55.468H24.842v9.993a4.688,4.688,0,0,1-8,3.315L1.372,53.307a4.687,4.687,0,0,1,0-6.629L16.84,31.21a4.688,4.688,0,0,1,8,3.315V44.531H44.531V24.842H34.525a4.688,4.688,0,0,1-3.315-8L46.678,1.372a4.687,4.687,0,0,1,6.629,0L68.775,16.84a4.688,4.688,0,0,1-3.315,8H55.468V44.531H75.156V34.538a4.687,4.687,0,0,1,8-3.315L98.626,46.691a4.687,4.687,0,0,1,0,6.629L83.158,68.788a4.687,4.687,0,0,1-8-3.315V55.468H55.468V75.156H65.474a4.688,4.688,0,0,1,3.315,8Z" transform="translate(-2083.999 4509.001)" fill="#e17935"/>
    </g>
  </g>
</svg>
