<svg xmlns="http://www.w3.org/2000/svg" xmlns:xlink="http://www.w3.org/1999/xlink" width="1481" height="581.5" viewBox="0 0 1481 581.5">
  <defs>
    <filter id="Rectangle_5" x="0" y="1.5" width="1481" height="580" filterUnits="userSpaceOnUse">
      <feOffset input="SourceAlpha"/>
      <feGaussianBlur stdDeviation="25.5" result="blur"/>
      <feFlood flood-color="#272525" flood-opacity="0.271"/>
      <feComposite operator="in" in2="blur"/>
      <feComposite in="SourceGraphic"/>
    </filter>
  </defs>
  <g id="Group_4" data-name="Group 4" transform="translate(2779.5 -4458)">
    <g transform="matrix(1, 0, 0, 1, -2779.5, 4458)" filter="url(#Rectangle_5)">
      <g id="Rectangle_5-2" data-name="Rectangle 5" transform="translate(76.5 78)" fill="#fff" stroke="#dbdbdb" stroke-width="1">
        <rect width="1328" height="427" rx="20" stroke="none"/>
        <rect x="0.5" y="0.5" width="1327" height="426" rx="19.5" fill="none"/>
      </g>
    </g>
    <g id="Rectangle_6" data-name="Rectangle 6" transform="translate(-2141 4458)" fill="#faf5ff" stroke="#fff" stroke-width="12">
      <rect width="201" height="201" rx="15" stroke="none"/>
      <rect x="6" y="6" width="189" height="189" rx="9" fill="none"/>
    </g>
    <text id="Interaction_Editor" data-name="Interaction Editor" transform="translate(-2331 4768)" font-size="69" font-family="LucidaGrande, Lucida Grande"><tspan x="0" y="0">Interaction</tspan><tspan y="0" font-family="MonotypeGurmukhi, Gurmukhi MT"> </tspan><tspan y="0">Editor</tspan></text>
    <text id="A_CMS_for_creating_self-support_content" data-name="A CMS for creating self-support content" transform="translate(-2525 4888)" fill="#8e8e8e" font-size="50" font-family="LucidaGrande, Lucida Grande"><tspan x="0" y="0">A</tspan><tspan y="0" font-family="MonotypeGurmukhi, Gurmukhi MT"> </tspan><tspan y="0">CMS</tspan><tspan y="0" font-family="MonotypeGurmukhi, Gurmukhi MT"> </tspan><tspan y="0">for</tspan><tspan y="0" font-family="MonotypeGurmukhi, Gurmukhi MT"> </tspan><tspan y="0">creating</tspan><tspan y="0" font-family="MonotypeGurmukhi, Gurmukhi MT"> </tspan><tspan y="0">self</tspan><tspan y="0" font-family="MonotypeGurmukhi, Gurmukhi MT">-</tspan><tspan y="0">support</tspan><tspan y="0" font-family="MonotypeGurmukhi, Gurmukhi MT"> </tspan><tspan y="0">content</tspan></text>
    <g id="Polygon_1" data-name="Polygon 1" transform="translate(-2046 4496)" fill="none">
      <path d="M30.549,5.887a4,4,0,0,1,6.9,0l27.019,46.09A4,4,0,0,1,61.019,58H6.981a4,4,0,0,1-3.451-6.023Z" stroke="none"/>
      <path d="M 33.9999885559082 9.886905670166016 L 8.726799011230469 53 L 59.27318572998047 53 L 33.9999885559082 9.886905670166016 M 33.99999618530273 3.909519195556641 C 35.33905792236328 3.909519195556641 36.67811584472656 4.568561553955078 37.45078277587891 5.886638641357422 L 64.46934509277344 51.97711944580078 C 66.03250122070312 54.64369201660156 64.10952758789062 58 61.0185546875 58 L 6.981449127197266 58 C 3.890464782714844 58 1.967475891113281 54.64369201660156 3.530647277832031 51.97711944580078 L 30.5491943359375 5.886638641357422 C 31.32186889648438 4.568561553955078 32.66093444824219 3.909519195556641 33.99999618530273 3.909519195556641 Z" stroke="none" fill="#805ad5"/>
    </g>
    <g id="Ellipse_1" data-name="Ellipse 1" transform="translate(-2104 4563)" fill="none" stroke="#805ad5" stroke-width="4">
      <circle cx="29" cy="29" r="29" stroke="none"/>
      <circle cx="29" cy="29" r="27" fill="none"/>
    </g>
    <g id="Rectangle_7" data-name="Rectangle 7" transform="translate(-2038 4564)" fill="none" stroke="#805ad5" stroke-width="4">
      <rect width="55" height="55" stroke="none"/>
      <rect x="2" y="2" width="51" height="51" fill="none"/>
    </g>
  </g>
</svg>
