<svg xmlns="http://www.w3.org/2000/svg" xmlns:xlink="http://www.w3.org/1999/xlink" width="1481" height="581.5" viewBox="0 0 1481 581.5">
  <defs>
    <filter id="Rectangle_5" x="0" y="1.5" width="1481" height="580" filterUnits="userSpaceOnUse">
      <feOffset input="SourceAlpha"/>
      <feGaussianBlur stdDeviation="25.5" result="blur"/>
      <feFlood flood-color="#272525" flood-opacity="0.271"/>
      <feComposite operator="in" in2="blur"/>
      <feComposite in="SourceGraphic"/>
    </filter>
  </defs>
  <g id="Group_10" data-name="Group 10" transform="translate(1335.5 -5126)">
    <g id="Group_7" data-name="Group 7" transform="translate(1444 668)">
      <g transform="matrix(1, 0, 0, 1, -2779.5, 4458)" filter="url(#Rectangle_5)">
        <g id="Rectangle_5-2" data-name="Rectangle 5" transform="translate(76.5 78)" fill="#fff" stroke="#dbdbdb" stroke-width="1">
          <rect width="1328" height="427" rx="20" stroke="none"/>
          <rect x="0.5" y="0.5" width="1327" height="426" rx="19.5" fill="none"/>
        </g>
      </g>
      <g id="Rectangle_6" data-name="Rectangle 6" transform="translate(-2146 4458)" fill="#fff5f5" stroke="#fff" stroke-width="12">
        <rect width="201" height="201" rx="15" stroke="none"/>
        <rect x="6" y="6" width="189" height="189" rx="9" fill="none"/>
      </g>
      <text id="Operation_Dashboard" data-name="Operation Dashboard" transform="translate(-2406 4768)" font-size="69" font-family="LucidaGrande, Lucida Grande"><tspan x="0" y="0">Operation</tspan><tspan y="0" font-family="MonotypeGurmukhi, Gurmukhi MT"> </tspan><tspan y="0">Dashboard</tspan></text>
      <text id="A_monitoring_service_for_interactions" data-name="A monitoring service for interactions" transform="translate(-2494 4888)" fill="#8e8e8e" font-size="50" font-family="LucidaGrande, Lucida Grande"><tspan x="0" y="0">A</tspan><tspan y="0" font-family="MonotypeGurmukhi, Gurmukhi MT"> </tspan><tspan y="0">monitoring</tspan><tspan y="0" font-family="MonotypeGurmukhi, Gurmukhi MT"> </tspan><tspan y="0">service</tspan><tspan y="0" font-family="MonotypeGurmukhi, Gurmukhi MT"> </tspan><tspan y="0">for</tspan><tspan y="0" font-family="MonotypeGurmukhi, Gurmukhi MT"> </tspan><tspan y="0">interactions</tspan></text>
      <path id="FontAwsome_glasses_" data-name="FontAwsome (glasses)" d="M105.65,87.433,97.3,46.873a19.619,19.619,0,0,0-7.913-12.457A13.712,13.712,0,0,0,76.475,33l-2.806,1.134a3.783,3.783,0,0,0-1.862,4.518l.931,3.388c.513,1.87,2.181,2.882,3.723,2.259l2.425-.98a6.62,6.62,0,0,1,6.1.386,8.755,8.755,0,0,1,3.749,5.763l7.078,34.334a42.809,42.809,0,0,0-14.943-2.781,41.4,41.4,0,0,0-21.136,5.969H46.268a41.361,41.361,0,0,0-21.137-5.971A42.811,42.811,0,0,0,10.186,83.8l7.078-34.336a8.746,8.746,0,0,1,3.75-5.761,6.616,6.616,0,0,1,6.1-.386l2.424.98c1.542.623,3.209-.388,3.723-2.259l.931-3.388a3.783,3.783,0,0,0-1.862-4.518L29.524,33a13.706,13.706,0,0,0-12.917,1.413A19.625,19.625,0,0,0,8.693,46.869L.35,87.433A17.242,17.242,0,0,0,0,90.891v15.681c0,14.04,9.492,25.421,21.2,25.421h6.831c11.093,0,20.311-10.254,21.141-23.52l.539-8.623H56.29l.539,8.623c.828,13.265,10.046,23.52,21.139,23.52H84.8c11.708,0,21.2-11.382,21.2-25.419V90.893A17.248,17.248,0,0,0,105.65,87.433ZM37.428,107.392c-.363,5.783-4.49,10.315-9.4,10.315H21.2c-5.2,0-9.422-5-9.422-11.136V98.192a33.8,33.8,0,0,1,13.357-2.884A30.57,30.57,0,0,1,38,98.192l-.576,9.2Zm56.795-.819c0,6.141-4.227,11.134-9.422,11.134H77.969c-4.908,0-9.036-4.531-9.4-10.315L68,98.192a30.58,30.58,0,0,1,12.873-2.884A33.8,33.8,0,0,1,94.22,98.194v8.379Z" transform="translate(-2099 4477.007)" fill="#ea6261"/>
    </g>
  </g>
</svg>
